<svg xmlns="http://www.w3.org/2000/svg" xmlns:xlink="http://www.w3.org/1999/xlink"><symbol id="icon-check" viewBox="-82.36 4.88 21.7 16.09"><path d="M-60.95 5.17a1 1 0 00-1.42 0l-13.38 13.38-4.9-4.9a1 1 0 10-1.41 1.41l5.6 5.61a1 1 0 001.42 0l14.09-14c.39-.48.39-1.11 0-1.5z"/></symbol><symbol id="icon-editor-contrast" viewBox="-35.422 -7.96 31.92 31.92"><path fill="#231F20" d="M-19.462-3.96c6.595 0 11.96 5.365 11.96 11.96s-5.365 11.96-11.96 11.96-11.96-5.365-11.96-11.96 5.365-11.96 11.96-11.96m0-4c-8.814 0-15.96 7.145-15.96 15.96 0 8.813 7.146 15.96 15.96 15.96S-3.502 16.813-3.502 8c0-8.815-7.146-15.96-15.96-15.96z"/><path d="M-19.462 16.331a8.519 8.519 0 008.52-8.52 8.518 8.518 0 00-8.52-8.519"/></symbol><symbol id="icon-editor-crop"><path fill="none" d="M0 0h48v48H0V0z"/><path d="M34 30h4V14c0-2.21-1.79-4-4-4H18v4h16v16zm-20 4V2h-4v8H2v4h8v20c0 2.21 1.79 4 4 4h20v8h4v-8h8v-4H14z"/></symbol><symbol id="icon-editor-diagram-fill" viewBox="22.5 69 253 253"><path fill="#d22856" d="M149 69.048c-69.864 0-126.5 56.636-126.5 126.5s56.636 126.5 126.5 126.5 126.5-56.636 126.5-126.5c0-69.863-56.636-126.5-126.5-126.5zm0 237.216c-60.844 0-110.167-49.323-110.167-110.167S88.156 85.93 149 85.93c60.843 0 110.167 49.323 110.167 110.167S209.843 306.264 149 306.264z"/></symbol><symbol id="icon-editor-fill"><path fill="none" d="M0 0h48v48H0V0z"/><path d="M33.12 17.88L15.24 0l-2.83 2.83 4.76 4.76L6.88 17.88a3 3 0 000 4.24l11 11c.58.59 1.35.88 2.12.88s1.54-.29 2.12-.88l11-11a3 3 0 000-4.24zM10.41 20L20 10.42 29.59 20H10.41zM38 23s-4 4.33-4 7c0 2.21 1.79 4 4 4s4-1.79 4-4c0-2.67-4-7-4-7zM0 40h48v3H0z"/></symbol><symbol id="icon-facebook"><path d="M6.275 3.357h2.398V0H5.795C2.656.181 1.54 2.387 1.948 6.115H0v3.517h1.958v9.312h3.837V9.632h2.857V6.115H5.786c-.021-1.045-.036-2.406.489-2.758z"/></symbol><symbol id="icon-heart" viewBox="521.94 473.06 12.54 11.99"><path d="M528.17 485.06a.74.74 0 01-.55-.25 318.9 318.9 0 01-4.86-5.58 3.8 3.8 0 015.46-5.27 3.8 3.8 0 016.26 2.9c0 .91-.31 1.75-.9 2.38l-4.85 5.56a.73.73 0 01-.56.25zm-4.24-6.71c.2.25 2.47 2.84 4.24 4.86l4.33-4.95c.34-.37.52-.86.52-1.4a2.33 2.33 0 00-2.33-2.33c-.73 0-1.43.35-1.9.95a.76.76 0 01-.59.27.73.73 0 01-.58-.3 2.33 2.33 0 00-1.88-.92 2.33 2.33 0 00-1.83 3.8l.02.02z"/></symbol><symbol id="icon-mail"><path fill="#d22856" d="M14.91 1.81c1.2-1 .9-1.81-.65-1.81H3.73c-1.56 0-1.85.82-.66 1.81l3.75 3.12c1.2 1 3.15 1 4.35 0l3.74-3.12z"/><path fill="#d22856" d="M11.91 7.04L9.7 8.88l-.02.01c-.08.06-.16.1-.24.14l-.1.05c-.11.03-.22.05-.34.06h-.02c-.11 0-.22-.03-.33-.06l-.1-.05a1.07 1.07 0 01-.24-.14l-.02-.01-2.21-1.84-3.9-3.24C.98 2.8 0 3.26 0 4.82v6.31a2.84 2.84 0 002.83 2.84h12.32A2.84 2.84 0 0018 11.13V4.82c0-1.56-.98-2.02-2.18-1.02l-3.9 3.24z"/></symbol><symbol id="icon-map-marker"><circle fill="#FFF" cx="17.991" cy="17.991" r="17.991"/><circle fill="#D22856" cx="17.991" cy="17.991" r="7.866"/></symbol><symbol id="icon-menu-burger"><path fill="#FFF" d="M1.137 0C.51 0 0 .428 0 1.01v1.981c0 .558.494 1.01 1.139 1.01H48.81c.628 0 1.138-.428 1.138-1.01V1.01c0-.558-.494-1.01-1.138-1.01H1.137zm0 10.003c-.627 0-1.137.428-1.137 1.01v1.98c0 .557.494 1.01 1.139 1.01H48.81c.628 0 1.138-.428 1.138-1.01v-1.98c0-.558-.494-1.01-1.138-1.01H1.137zm0 10.002C.51 20.005 0 20.434 0 21.016v1.981c0 .557.494 1.01 1.139 1.01H48.81c.628 0 1.138-.428 1.138-1.01v-1.981c0-.558-.494-1.011-1.138-1.011H1.137z"/><path fill="#FFF" d="M1.137 0C.51 0 0 .428 0 1.01v1.981c0 .558.494 1.01 1.139 1.01H48.81c.628 0 1.138-.428 1.138-1.01V1.01c0-.558-.494-1.01-1.138-1.01H1.137zm0 10.003c-.627 0-1.137.428-1.137 1.01v1.98c0 .557.494 1.01 1.139 1.01H48.81c.628 0 1.138-.428 1.138-1.01v-1.98c0-.558-.494-1.01-1.138-1.01H1.137zm0 10.002C.51 20.005 0 20.434 0 21.016v1.981c0 .557.494 1.01 1.139 1.01H48.81c.628 0 1.138-.428 1.138-1.01v-1.981c0-.558-.494-1.011-1.138-1.011H1.137z"/></symbol><symbol id="icon-menu-cross"><path fill="#FFF" d="M15.087 11.933l8.56-8.559a.75.75 0 000-1.061L21.554.22a.747.747 0 00-1.06 0l-8.561 8.56L3.373.22a.771.771 0 00-1.061 0L.22 2.313a.75.75 0 000 1.061l8.56 8.559-8.56 8.559a.751.751 0 000 1.062l2.093 2.094a.744.744 0 001.06 0l8.561-8.56 8.56 8.56a.746.746 0 001.06 0l2.093-2.094a.751.751 0 000-1.062l-8.56-8.559z"/></symbol><symbol id="icon-no"><path d="M15.5 13.38L26.3 2.56A1.5 1.5 0 1024.2.44L13.38 11.26 2.56.44A1.5 1.5 0 10.44 2.56l10.81 10.81L.44 24.2a1.5 1.5 0 102.12 2.12L13.38 15.5l10.81 10.8a1.5 1.5 0 002.12 0 1.5 1.5 0 000-2.12L15.5 13.38z"/></symbol><symbol id="icon-phone"><path fill="#d22856" d="M9.85 0c-3.51 0-7.03.63-8.3 1.88C.49 2.92.13 4.75.02 5.9L0 6.08c0 .45.37.82.82.82a493.34 493.34 0 003.3-.28c.45-.01.8-.37.8-.82V4.2c0-.5.41-.9.91-.9h8.03c.5 0 .9.4.9.9l.01 1.61c0 .45.36.81.8.82l.09.02 3.22.26a.82.82 0 00.8-.99c-.12-1.16-.47-3-1.53-4.03C16.87.63 13.35 0 9.85 0zm0 10.67a1.64 1.64 0 100 3.28 1.64 1.64 0 000-3.28zm-1.23-3.7V5.96a1.03 1.03 0 10-2.05 0v1.02L1.03 12.9c-.38.37-.62.9-.62 1.47V16c0 .91.73 1.65 1.64 1.65h.41v1.02a1.03 1.03 0 102.05 0v-1.02h10.67v1.02a1.03 1.03 0 102.05 0v-1.02h.41c.9 0 1.64-.74 1.64-1.65v-1.64c0-.58-.23-1.1-.61-1.47l-5.54-5.92V5.96a1.03 1.03 0 10-2.05 0v1.02H8.62zm1.23 2.06a3.28 3.28 0 110 6.56 3.28 3.28 0 010-6.56z"/></symbol><symbol id="icon-quotes"><path fill="#efefef" d="M34.967 7.063L30.713 0C28.272 1.495 0 12.207 0 39.617c0 7.231.336 24.172 18.9 24.172 11.187 0 13.94-10.279 13.94-13.584 0-21.977-21.382-14.177-21.382-14.177 0-18.071 19.805-26.844 23.509-28.965zm43.705 0L74.418 0c-2.44 1.495-30.713 12.207-30.713 39.617 0 7.231.337 24.172 18.9 24.172 11.187 0 13.939-10.279 13.939-13.584 0-21.977-21.381-14.177-21.381-14.177.002-18.071 19.806-26.844 23.509-28.965z"/></symbol><symbol id="icon-review-arrow-left"><path d="M2.04 20.86L21.47 1.45a.85.85 0 00-1.2-1.2L.25 20.26a.85.85 0 000 1.2l20.01 20.01a.84.84 0 001.2 0 .85.85 0 000-1.2L2.05 20.86z"/></symbol><symbol id="icon-review-arrow-right"><path d="M19.66 20.86L.25 1.45a.85.85 0 011.2-1.2l20 20.01c.34.33.34.87 0 1.2l-20 20.01a.84.84 0 01-1.2 0 .85.85 0 010-1.2l19.41-19.41z"/></symbol><symbol id="icon-timer"><path fill="#dedede" d="M264.568 102.055l5.355-5.355c7.717-7.717 9.124-18.938 3.126-24.935-5.997-5.997-17.217-4.59-24.934 3.127l-5.386 5.385C221.768 63.292 196.11 51.875 168 48.297v-9.583h7.658c10.914 0 19.843-8.711 19.843-19.357S186.573 0 175.659 0h-53.317C111.429 0 102.5 8.711 102.5 19.357s8.929 19.357 19.842 19.357H130v9.583C56.681 57.629 0 120.244 0 196.097c0 82.291 66.709 149 149 149 82.29 0 149-66.709 149-149 0-35.663-12.535-68.394-33.432-94.042zM149 306.264c-60.844 0-110.167-49.323-110.167-110.167S88.156 85.93 149 85.93c60.843 0 110.167 49.323 110.167 110.167S209.843 306.264 149 306.264z"/></symbol><symbol id="icon-twitter"><path fill-rule="evenodd" clip-rule="evenodd" d="M11.283.153c1.736-.485 3.074.263 3.685 1.151.694-.226 1.372-.47 2.072-.691-.004.841-.538 1.478-.883 1.727.704.166 1.343-.48 1.343-.48-.175.976-1.035 1.746-1.611 1.977-.239 6.592-3.272 10.956-10.382 10.823h-.46c-.422 0-4.29-.45-5.047-1.843 2.341.192 4.011-.412 4.835-1.15-.989-.293-2.761-.464-3.07-2.881.362.105.583.223 1.228.117C1.757 8.067.385 7.366.461 5.218c.294.32 1.1.523 1.381.461C1.117 5.444-.188 2.398.921.843 2.794 2.654 4.769 4.364 8.29 4.528 8.506 2.288 9.461.787 11.283.153z"/></symbol><symbol id="icon-yes" viewBox="-82.36 4.88 21.7 16.09"><path d="M-60.95 5.17a1 1 0 00-1.42 0l-13.38 13.38-4.9-4.9a1 1 0 10-1.41 1.41l5.6 5.61a1 1 0 001.42 0l14.09-14c.39-.48.39-1.11 0-1.5z"/></symbol><symbol id="icon-youtube"><path d="M1.775 13.78C.799 14.257 0 13.758 0 12.671V1.29C0 .202.799-.295 1.775.181l12.133 5.932c.975.478.975 1.258 0 1.736L1.775 13.78z"/></symbol></svg>